<svg xmlns="http://www.w3.org/2000/svg" viewBox="0 0 20 27" fill="currentColor">
  <!-- stalks -->
  <line x1="9.5" y1="26" x2="6.2" y2="12" stroke="currentColor" stroke-width="1.0" stroke-linecap="round"/>
  <line x1="10.0" y1="26" x2="10.0" y2="11.5" stroke="currentColor" stroke-width="1.0" stroke-linecap="round"/>
  <line x1="10.5" y1="26" x2="13.8" y2="12" stroke="currentColor" stroke-width="1.0" stroke-linecap="round"/>
  <!-- center head: zigzag grain silhouette -->
  <path d="M10.4 11.5 L12 10 L10.4 9 L12 7.5 L10.4 6.5 L12 5 L10.4 4 L10 1.8 L9.6 4 L8 5 L9.6 6.5 L8 7.5 L9.6 9 L8 10 L9.6 11.5 Z"/>
  <line x1="10" y1="1.8" x2="10" y2="0.3" stroke="currentColor" stroke-width="0.85" stroke-linecap="round"/>
  <!-- left head -->
  <g transform="rotate(-14 5.8 6.75)">
    <path d="M6.2 11.5 L7.8 10 L6.2 9 L7.8 7.5 L6.2 6.5 L7.8 5 L6.2 4 L5.8 1.8 L5.4 4 L3.8 5 L5.4 6.5 L3.8 7.5 L5.4 9 L3.8 10 L5.4 11.5 Z"/>
    <line x1="5.8" y1="1.8" x2="5.8" y2="0.3" stroke="currentColor" stroke-width="0.85" stroke-linecap="round"/>
  </g>
  <!-- right head -->
  <g transform="rotate(14 14.2 6.75)">
    <path d="M14.6 11.5 L16.2 10 L14.6 9 L16.2 7.5 L14.6 6.5 L16.2 5 L14.6 4 L14.2 1.8 L13.8 4 L12.2 5 L13.8 6.5 L12.2 7.5 L13.8 9 L12.2 10 L13.8 11.5 Z"/>
    <line x1="14.2" y1="1.8" x2="14.2" y2="0.3" stroke="currentColor" stroke-width="0.85" stroke-linecap="round"/>
  </g>
  <!-- tie -->
  <path d="M7.5 23 Q10 24.5 12.5 23" stroke="currentColor" stroke-width="1.2" stroke-linecap="round" fill="none"/>
</svg>
